<svg xmlns="http://www.w3.org/2000/svg" viewBox="0 0 64 64" fill="currentColor">
  <!-- General aviation twin-engine (PA34/C310 class) - original design -->
  <path d="M32 7C32.8 7 33.2 8 33.2 9.5L33.2 23L48 29.5C49 30 49 31.5 48 32L33.2 31V47L38 50.5C39 51.2 38.5 52 38 52L33.2 50.5L32.5 54C32.3 55 31.7 55 31.5 54L30.8 50.5L26 52C25.5 52 25 51.2 26 50.5L30.8 47V31L16 32C15 31.5 15 30 16 29.5L30.8 23V9.5C30.8 8 31.2 7 32 7Z"/>
  <!-- Engine nacelles + prop discs -->
  <ellipse cx="24" cy="29" rx="1.5" ry="3"/>
  <circle cx="24" cy="25.5" r="2" fill-opacity="0.4"/>
  <ellipse cx="40" cy="29" rx="1.5" ry="3"/>
  <circle cx="40" cy="25.5" r="2" fill-opacity="0.4"/>
</svg>
