<svg xmlns="http://www.w3.org/2000/svg" viewBox="0 0 64 64" fill="currentColor">
  <!-- Super heavy / 4-engine (B747/A380 class) - original design -->
  <!-- Very wide fuselage, 4 engine pods, large wingspan -->
  <path d="M32 1C34 1 35.5 2.5 35.5 5L35.5 16L58 25C60 26 60 28.5 58 29L35.5 27.5V44L44 50C45 51 44.5 52.5 44 52.5L35.5 50L33 58C32.5 59.5 31.5 59.5 31 58L28.5 50L20 52.5C19.5 52.5 19 51 20 50L28.5 44V27.5L6 29C4 28.5 4 26 6 25L28.5 16V5C28.5 2.5 30 1 32 1Z"/>
  <!-- 4 engine pods -->
  <ellipse cx="20" cy="22.5" rx="1.8" ry="3.5"/>
  <ellipse cx="26" cy="20.5" rx="1.8" ry="3.5"/>
  <ellipse cx="38" cy="20.5" rx="1.8" ry="3.5"/>
  <ellipse cx="44" cy="22.5" rx="1.8" ry="3.5"/>
</svg>
