<svg
   viewBox="-28 -29 80 80"
   xmlns="http://www.w3.org/2000/svg"
   xmlns:svg="http://www.w3.org/2000/svg">
  <title>ATR-42-500</title>
  <defs />
  <g>
    <path
       style="fill:currentColor;stroke:none"
       d="m 12.227581,-0.01670434 -0.534539,0.48442602 -0.551244,1.23612152 -0.267269,1.6370259 0.03341,4.4266514 -0.26727,0.434313 -0.133635,0.868626 L 8.6528509,9.0871653 8.6194423,7.4835479 8.5025118,7.2329828 8.2352421,6.6149222 l -0.3674954,0.634765 -0.066817,0.2171565 1.2e-6,1.6036171 -0.5011304,0.016706 -6.91559883,0.634765 -0.3674956,0.4009042 0.01670434,1.069078 7.51695529,0.484426 h 3.0067823 l 0.167043,0.868626 0.183748,0.534539 0.03341,2.188269 0.384199,2.539061 0.484427,2.823034 -2.8564433,0.501131 -0.200452,0.250565 0.016703,0.968852 3.3408693,0.150339 0.283973,0.567948 0.133636,3e-6 0.200451,-0.601356 3.491209,-0.233861 -0.05011,-0.968852 -0.217156,-0.267269 -2.973373,-0.3842 0.417608,-2.6894 c 0.191592,-0.920738 0.329255,-1.836029 0.367494,-2.772921 l 0.0334,-2.138156 0.200452,-0.467722 0.06682,-0.952148 3.040191,0.0167 7.583772,-0.517834 0.0167,-1.2528257 -0.3842,-0.2839739 L 17.121948,9.0203489 16.837974,9.0370549 16.804564,7.349916 16.687634,7.1327595 16.370251,6.581516 16.102982,7.149464 15.986051,7.4167334 15.969351,9.0370549 14.081761,8.9869389 13.981537,8.1684261 13.747676,7.7174088 13.680863,4.0925658 13.64745,3.2072343 13.396885,1.6537302 12.812233,0.48442602 Z" />
  </g>
</svg>