<svg
   viewBox="-25 -27 80 80"
   xmlns="http://www.w3.org/2000/svg"
   xmlns:svg="http://www.w3.org/2000/svg">
  <title>British Aerospace ATP</title>
  <defs />
  <g>
    <path
       style="fill:currentColor;stroke:none"
       d="m 15.189918,0.11811756 -0.94494,1.37016364 -0.307106,1.0394346 -0.02362,8.3154762 -2.22061,0.425223 -0.02362,-1.9135044 -0.188988,-0.2126115 -0.118118,-0.5433409 -0.283482,-0.2598586 -0.259859,0.4015996 -0.09449,0.4252233 -0.118117,0.3071058 -0.02362,1.8190107 -10.2762274,1.228422 -0.25699262,0.275067 0.0918739,0.968852 0.20045215,0.15034 5.97180347,0.300678 0.066817,0.167043 0.1169305,0.03341 0.083522,-0.200452 2.3887215,0.11693 0.066817,0.217157 0.1002261,0.0167 0.083522,-0.217156 1.4699824,0.06682 0.11693,0.283974 0.785105,0.0167 0.08352,-0.233861 1.870887,0.100226 0.300678,0.233861 0.06682,0.367496 0.06682,4.744034 0.183748,1.687139 0.23386,0.868626 -4.6772161,0.935443 0.066817,1.26953 4.6438081,0.551244 0.701583,0.05011 0.200452,0.584652 0.03341,0.818514 0.15034,-0.01669 0.0167,-0.751696 0.167044,-0.61806 0.601356,-0.05011 4.794147,-0.701583 -0.05011,-1.236121 -4.627103,-0.851922 0.150339,-0.985556 0.11693,-0.818513 -0.0167,-5.445617 0.100226,-0.350791 0.26727,-0.317383 2.03793,-0.133634 0.06682,0.200452 0.818513,-0.03341 0.03341,-0.267269 1.553504,-0.08352 0.08352,0.217156 0.100226,-0.0167 0.08352,-0.233861 2.355312,-0.167043 0.05011,0.200452 0.150339,0.01671 0.08352,-0.26727 5.980156,-0.400904 L 30.535564,12.56169 30.368502,12.227594 19.995103,11.242037 19.961694,9.3711508 19.844764,9.0871769 19.711129,8.6528639 19.410451,8.3020727 19.17659,8.6695681 19.109773,9.0871769 18.976138,9.2542203 18.926023,11.125094 16.687641,10.874529 16.520597,2.5390604 16.186511,1.4365737 Z" />
  </g>
</svg>