<svg
   viewBox="-32 -34 80 80"
   xmlns="http://www.w3.org/2000/svg"
   xmlns:svg="http://www.w3.org/2000/svg">
  <title>Cessna C-208</title>
  <defs />
  <g>
    <path
       style="fill:currentColor;stroke:none"
       d="M 8.61077,0.01181176 8.3627231,0.24804687 8.3036644,0.66145832 8.0201822,0.70870534 7.831194,1.3465402 7.6776412,2.5040922 7.6185825,4.5829614 4.1577381,4.6774552 4.1341135,4.2640437 4.0396194,4.2876684 4.0278087,4.7128906 0.05905878,4.8428198 0.11811756,6.18936 7.6067707,6.7208891 l 0.047247,1.2166108 0.1889879,1.5237166 0.3189174,2.1851745 -3.0356212,0.318918 0.023625,0.862258 3.0946798,0.212611 0.1063059,0.08268 0.07087,0.531529 0.1299295,-0.01181 0.011811,-0.519718 0.059059,-0.08268 3.189174,-0.153553 -0.01181,-0.838634 -3.0238094,-0.4016 0.3661645,-2.1615514 0.2215572,-1.4828968 0.073738,-1.3046775 7.4414057,-0.3307291 0.08268,-1.3347285 -3.945126,-0.2362351 0.01181,-0.5079055 -0.07087,-0.094494 -0.177176,-0.094494 -0.153553,0.094494 -0.02362,0.1181177 0.01181,0.4606584 L 9.4966516,4.547526 9.4730283,2.468657 9.2929858,1.3316165 9.0832402,0.73232887 8.8789809,0.65943174 8.8157183,0.25891735 Z" />
  </g>
  <g>
    <path
       style="fill:currentColor;stroke:none"
       d="m 12.60119,4.8134299 0.165365,0.4370335 0.224422,-0.4252225 M 8.4412207,13.131311 C 8.4161646,13.04779 8.357697,11.602863 8.357697,11.602863 L 8.4829799,9.381186 8.5832067,11.661328 Z M 8.9577114,3.4137365 v -0.685083 m 0.2480474,0.6998488 -0.076778,-0.03839 -0.3838812,-0.00296 -0.00296,-0.711657 0.3366352,0.00296 0.1092593,0.1003997 z M 8.1894987,3.4137365 v -0.685083 m -0.2480474,0.6998488 0.076778,-0.03839 0.3838812,-0.00296 0.00296,-0.711657 -0.3366352,0.00296 L 7.959176,2.778855 Z" />
  </g>
</svg>