<svg
   viewBox="-30 -29 80 80"
   xmlns="http://www.w3.org/2000/svg"
   xmlns:svg="http://www.w3.org/2000/svg">
  <title>Dornier 328</title>
  <defs />
  <g>
    <path
       style="fill:currentColor;stroke:none"
       d="M 10.635975,0.0881685 10.043547,0.75029398 9.6863471,1.4995416 9.4685424,2.4578813 9.3988444,3.0503097 9.3814193,7.057912 9.2420237,7.632916 9.1723271,8.1904954 7.4647399,8.1556453 V 6.7616972 L 7.3601928,6.0647222 6.9594324,5.2980517 6.5760977,6.0472987 6.454126,6.7094237 V 8.1730698 L 1.5230339,8.7132248 0.28590393,9.9677798 V 10.21172 l 8.83414967,0.226517 0.1742431,1.533344 0.03485,2.543955 0.069696,1.028038 0.6969753,4.530334 -2.7878968,0.575002 v 0.940916 l 3.1886568,0.261366 3.328053,-0.261366 -0.01743,-0.836369 -2.892445,-0.679549 0.453034,-2.578807 0.383336,-1.951527 0.104546,-1.097734 -0.03485,-2.509108 0.226518,-1.481071 9.025817,-0.139394 L 21.020882,9.9677798 19.853458,8.7132248 14.887515,8.2079189 14.87009,6.8488183 14.765544,6.0472987 14.347359,5.2806272 13.981448,6.0298743 13.842054,6.6919992 V 8.1730698 H 12.134467 L 12.047345,7.6067784 11.925374,7.1450336 11.907949,3.1200063 11.820828,2.4404557 11.611736,1.569238 11.210975,0.73286894 Z" />
  </g>
</svg>