<svg
   viewBox="-26 -27 80 80"
   xmlns="http://www.w3.org/2000/svg"
   xmlns:svg="http://www.w3.org/2000/svg">
  <title>DHC-8-300 Dash 8</title>
  <defs />
  <g>
    <path
       style="fill:currentColor;stroke:none"
       d="m 14.488505,0.15897396 -0.453601,0.48383964 -0.619919,1.5271187 -0.39312,1.6480781 -0.09073,7.0610346 -2.283118,0.01512 -0.09072,-1.6631983 -0.06048,-0.2721608 -0.317519,-0.6350392 -0.2721604,0.6199205 -0.090725,0.2872795 v 1.6631983 l -9.28367073,0.80136 -0.39312002,1.224718 4.14287585,0.34776 0.13608,0.24192 0.1814396,-0.226799 2.5703987,0.151199 0.1965592,0.36288 0.1663191,-0.347759 2.192399,0.151199 0.1058398,0.8316 0.3653129,0.93878 0.379546,-0.930156 0.02673,-0.860662 2.368154,0.01604 0.0107,4.629395 0.866006,6.051358 -3.742006,0.470424 -0.0107,1.646482 4.009293,0.02138 0.128297,0.320742 0.149681,-0.320742 c 0,0 4.062749,0.09622 4.062749,0.03207 0,-0.06415 -0.04277,-1.603718 -0.04277,-1.603718 l -3.731315,-0.555955 1.004996,-6.051358 0.09622,-4.586629 2.309352,0.02138 0.03207,0.844624 0.395584,0.866007 0.384893,-0.844624 0.05345,-0.919464 2.266587,-0.07484 0.117605,0.267286 0.14968,-0.310051 2.715627,-0.09622 0.06415,0.256595 0.138989,-0.288668 L 28.6877,13.211354 28.270734,11.896307 19.00125,10.95546 18.958484,9.373126 18.862261,9.1165302 18.541517,8.4215868 18.1887,9.1272227 18.145933,9.4051999 18.12455,10.944768 15.783122,10.934072 15.804505,3.8242608 15.47307,2.1777782 14.88504,0.65959296 Z" />
  </g>
</svg>