<svg
   xmlns:svg="http://www.w3.org/2000/svg"
   xmlns="http://www.w3.org/2000/svg"
   viewBox="-36 -36 80 80">
  <defs />
  <g>
    <path
       style="fill:currentColor;stroke:none"
       d="m 0.07275332,6.4519986 3.86498808,0.028642 0.036274,0.8995794 -1.284076,0.2031308 -0.079801,0.3990064 0.021763,0.4497893 0.1668574,-0.058038 2.5608966,0.00724 0.12333,0.065293 0.029023,-0.449793 -0.1088206,-0.4207711 -1.2260383,-0.1958758 0.00726,-0.3119514 -0.00726,-0.6021371 3.9393986,-0.044263 -0.00621,-0.169935 -2.3546995,0.032316 -0.076775,-9e-6 -1.4350748,0.022603 -0.00135,-0.06562 h 0.079801 L 5.3669052,5.4794649 5.511999,5.5955397 5.519239,5.8059252 5.7658974,5.7986652 V 5.0587223 H 5.5337483 l -0.021767,0.2611679 -0.1886209,0.065292 -1.1099646,0.00726 V 5.0006814 L 4.7575165,4.9861712 4.7284962,2.1278328 4.5761485,1.2209995 4.4020364,0.61160746 4.0030331,0.19809189 3.5895172,0.65513591 3.4407965,1.2391366 3.3210945,2.2148893 3.3646223,4.9934262 h 0.522336 l 0.00726,0.3772426 -1.3348587,0.036273 -0.058038,-0.1088196 -0.065291,-0.2394045 -0.239404,0.00726 0.021763,0.7689974 0.2684228,-0.014511 0.1088199,-0.311951 0.152348,0.00726 1.0736907,0.7327211 0.00455,0.06613 -1.2223186,-0.017718 H 2.5448454 L 0.0786592,6.2691256 Z" />
  </g>
</svg>