<svg
   xmlns:svg="http://www.w3.org/2000/svg"
   xmlns="http://www.w3.org/2000/svg"
   viewBox="-32 -35 80 80">
  <title>Pilatus PC-6 Turbo</title>
  <defs />
  <g
     style="display:inline">
    <path
       style="fill:currentColor;stroke:none"
       d="m 7.9611235,0.04724702 -0.2008,0.3779762 -1.0394344,0.0118118 0.023625,0.0354353 L 7.7367013,0.4606585 7.6894541,0.60239957 7.6658294,0.75595241 7.3351003,0.73232882 7.3587249,1.0394345 7.654019,0.92131691 7.3232898,2.6812687 V 3.6143972 H 6.5673363 l 0.047247,-0.2126115 -0.023624,-0.3838821 -0.059059,-0.064965 -0.094494,0.00591 -0.053153,0.082682 -0.029529,0.4901877 0.07087,0.1004001 L 0.40159969,3.626209 0.16536458,3.7384206 0.0531529,3.96875 l 0.0059059,1.6004928 1.7245163,0.00591 0.029529,0.082682 0.6968936,-0.00591 0.00591,-0.064964 4.8073848,-0.00591 0.011811,0.77367 0.4252233,3.336821 -2.2087983,0.011811 0.011811,0.4724712 -0.1594588,0.01181 0.011811,0.720517 1.7776693,-0.0059 0.023625,0.07678 h 0.6555523 l 0.02953,0.08859 0.135835,0.0059 0.023625,-0.09449 0.6791759,0.0059 v -0.08859 l 1.7835748,0.01181 -0.0059,-0.726423 -0.124023,0.01181 -0.01181,-0.4960944 H 8.1973596 l 0.4134115,-3.342727 -0.011811,-0.7795757 4.8073849,-0.00591 0.01772,0.088588 0.696894,0.00591 0.01772,-0.070871 1.759952,-0.023625 -0.01772,-1.6123047 -0.05906,-0.1358352 -0.165365,-0.1476468 -0.159458,-0.047247 -5.9649372,-0.00591 0.041341,-0.070871 -0.011811,-0.5079056 -0.053153,-0.076776 -0.1181174,-0.00591 -0.053153,0.07087 v 0.5138113 l 0.064964,0.076776 H 8.5812407 L 8.5871464,2.6871744 8.3272878,1.3111049 8.2800409,0.92722283 8.5989582,1.0512463 8.5871464,0.72642298 8.2505115,0.75004649 8.2623233,0.63192895 8.2032643,0.5610584 8.1087705,0.24214099 Z" />
  </g>
  <g>
    <path
       style="fill:currentColor;stroke:none"
       d="m 7.9611235,7.2465122 -0.088588,2.1202102 0.082682,1.0394346 0.088588,-0.9744698 z m 0.00591,-4.1045852 0.00591,0.7264231 M 7.3410062,3.2187033 7.547712,3.1242095 h 0.8327287 l 0.1889882,0.082682 0.00591,0.6791759 -1.2343285,4.1e-6 z m 1.3022462,0.073824 0.6378347,0.00886 m -2.5956334,-0.014766 0.5344822,0.00295 m 0.9944259,-2.88866682 1.0481976,-0.0125282 -0.029233,0.0292326 -0.9939086,0.0167044" />
  </g>
</svg>