<svg
   viewBox="-20 -33 80 80"
   xmlns="http://www.w3.org/2000/svg"
   xmlns:svg="http://www.w3.org/2000/svg">
  <title>RQ-4 Global Hawk</title>
  <defs />
  <g>
    <path
       style="fill:currentColor;stroke:none"
       d="m 20.078623,0.11693042 -0.484426,0.28397386 -0.350791,0.76839992 -0.116931,0.8185129 0.0167,1.1358955 0.01671,3.5580256 L 0.41760891,8.7864856 0.15033937,9.0871639 V 9.5381812 L 3.4410954,9.5882943 18.007285,8.9869377 18.49171,9.387842 19.159884,9.3377291 v 3.4577989 l 0.100226,0.434313 -2.405425,0.434313 -0.01671,-0.868626 h -0.100226 l -0.0167,0.835218 -0.116931,0.0167 0.03341,0.902035 2.021226,0.467721 1.403165,0.05011 1.586912,-0.11693 1.787366,-0.45937 v -0.826865 l -0.07517,-0.0167 v -0.893683 h -0.09187 l -0.0167,0.868626 -2.355313,-0.3842 0.03341,-0.467722 0.02506,-3.4243902 0.643117,-0.00835 0.542891,-0.3591435 14.549483,0.5930043 3.282405,0.016706 L 39.95682,9.0537556 39.672845,8.786486 20.955618,6.6650359 20.972318,2.9817277 20.938908,1.9210019 20.788569,1.0022629 20.471186,0.37584996 Z" />
  </g>
</svg>