<svg
   viewBox="-34 -36 80 80"
   xmlns="http://www.w3.org/2000/svg"
   xmlns:svg="http://www.w3.org/2000/svg">
  <title>Cirrus SR-22</title>
  <defs />
  <g
     style="display:inline">
    <path
       style="fill:currentColor;stroke:none"
       d="M 5.7818546,-0.00590588 5.6519251,0.30710565 4.7778553,0.33072916 5.6223958,0.46656437 5.3684431,0.55515253 5.2621372,0.82091704 5.1735492,1.594587 5.1499256,2.2501395 5.0790551,2.3623512 2.515904,2.468657 2.4922805,2.4095982 0.32482329,2.5040922 0.20670573,2.6044922 0.1063058,2.8289154 0.04134115,3.141927 0.0531529,3.2895741 h 0.38978793 l 4.63020827,0.5315288 0.1240234,0.1299295 0.3219573,1.500093 0.138701,0.9272228 -1.7304223,0.2067057 -0.082682,0.147647 v 0.342541 l 1.842634,0.124023 0.070871,0.6437407 0.011811,4.1e-6 0.088588,-0.6555524 1.8662576,-0.1063059 V 6.7740421 L 7.6067707,6.5968657 5.8704426,6.3842539 6.0299015,5.4472461 6.3488188,3.9569382 6.5082774,3.8151972 11.327474,3.3013859 11.593238,3.336821 11.540086,2.8466333 11.439685,2.6103981 11.315662,2.515904 9.0596169,2.4095982 v 0.047247 L 6.4787482,2.368257 6.4019716,2.2501395 6.3842539,1.594587 6.337007,0.9095052 6.2425129,0.5846819 5.905878,0.46656437 6.7740421,0.36616444 5.9235956,0.32482329 Z" />
  </g>
  <g>
    <path
       style="fill:currentColor;stroke:none"
       d="M 5.905878,6.3192895 5.8586308,7.2287947 M 5.6578311,6.3665364 V 7.2996652 M 5.2444197,2.3623512 5.4452194,2.4568452 5.6460193,2.3032924 h 0.2362351 l 0.2244233,0.094494 0.2008,-0.082682 M 5.2207961,1.9253162 5.4806548,1.6890811 5.7995721,1.6063988 6.0830544,1.6772693 6.3547246,1.9016927" />
  </g>
</svg>