<svg
   viewBox="-24 -30 80 80"
   xmlns="http://www.w3.org/2000/svg"
   xmlns:svg="http://www.w3.org/2000/svg">
  <title>Lockheed U-2</title>
  <defs />
  <g
     style="display:inline">
    <path
       style="fill:currentColor;stroke:none"
       d="m 15.601859,0.01670434 0.0167,0.98555636 0.400904,0.8853303 0.183748,1.6704346 0.03341,3.0485429 0.467721,0.041761 0.100226,0.2422128 0.04176,0.5763001 -0.200452,1.1776562 2.221678,0.3507914 0.0084,-1.4115171 0.08352,-0.626413 0.208805,-0.2505651 0.200452,-0.083522 0.233861,0.1419868 0.11693,0.2255088 0.05011,0.5762998 0.02506,1.495039 11.158503,1.5284478 0.192101,0.208804 -0.01669,0.968852 -6.873838,0.659822 -0.01671,0.208804 -0.208804,0.02506 -0.03341,-0.208804 -4.309721,0.359143 -0.05011,0.526187 -0.150339,0.26727 -0.167043,0.158691 -0.258918,-0.200452 -0.141987,-0.292326 -0.08352,-0.375848 -2.472243,0.258917 -0.04176,4.142678 3.173825,0.684878 0.100226,0.116931 0.03341,0.893682 -0.08352,0.100226 -3.449447,0.425961 -0.05847,0.108578 -0.317383,0.01675 -0.03341,0.593005 -0.167044,0.150338 -0.158691,-0.167043 -0.04176,-0.5763 -0.317382,-0.0167 -0.05846,-0.100226 -3.349222,-0.459369 -0.04176,-0.100226 0.02506,-0.952148 0.133635,-0.108578 3.140417,-0.634766 -0.05011,-4.217847 -2.388721,-0.233861 -0.07517,0.359144 -0.150339,0.317382 -0.225508,0.200452 -0.233861,-0.11693 -0.158692,-0.275622 -0.05846,-0.567947 -4.2261993,-0.350792 -0.00835,0.183748 L 7.0742965,12.553315 7.0408878,12.402976 0.17539563,11.776564 0.11693042,11.384011 0.01670434,10.857824 0.19209997,10.607259 11.492838,9.0832402 l 0.01181,-1.5945869 0.106306,-0.4960937 0.2008,-0.3189176 0.129929,-0.07087 0.236236,0.1535527 0.141741,0.4252233 0.02362,0.3779763 0.03543,1.0394344 -0.01181,0.3897879 2.232422,-0.3425407 -0.141741,-0.5669645 -0.04725,-0.7087052 0.05906,-0.4134115 0.05906,-0.3543527 h 0.460659 l 0.07087,-3.0828684 c 0.0046,-0.5543034 0.07775,-1.0966493 0.165366,-1.6418339 l 0.177176,-0.6732701 c 0.261435,-0.31154771 0.172885,-0.79831571 0.199337,-1.18809526 z" />
  </g>
  <g>
    <path
       style="fill:currentColor;stroke:none"
       d="m 15.535041,20.362597 0.0383,-3.201383 m -0.371611,2.387242 0.02362,-1.901693 0.04725,-0.755952 0.04725,-0.968564 0.07087,-0.596494 0.153553,-0.679176 m 0.02362,0.01181 0.236235,0.732329 0.03544,0.507905 0.07087,1.795387 0.01181,1.913505 M 15.618563,3.825295 h 0.283974 l 0.133635,0.9020347 -0.0042,0.5554194 -0.200453,0.012529 -0.129458,-0.3758483 h -0.179572 l -0.09396,0.3716717 -0.190012,-0.02088 -0.02919,-0.6681738 0.133635,-0.7683998 z m -0.830245,9.309377 -0.02219,-2.96821 -0.172284,-1.5980464 m 1.77725,4.5426334 0.02362,-2.929315 0.283482,-1.6063994" />
  </g>
</svg>