<svg
   viewBox="-25 -27 80 80"
   xmlns="http://www.w3.org/2000/svg"
   xmlns:svg="http://www.w3.org/2000/svg">
  <title>Unidentified aircraft</title>
  <defs />
  <g
     style="display:inline">
    <path
       style="fill:currentColor;stroke:none"
       d="M 14.618226,0.45432962 13.76811,2.15456 12.917995,6.4051363 12.870748,10.466063 0.16626549,16.60652 v 1.70023 l 12.79897651,-2.078538 0.244683,5.393125 -4.5425066,2.636221 v 0.850115 l 5.1006916,-0.850115 0.850116,1.70023 0.850115,-1.70023 5.100691,0.850115 v -0.850115 l -4.499569,-2.550346 0.201746,-5.431753 12.798977,2.031291 V 16.60652 L 16.223962,10.51331 16.318456,6.4051363 15.468341,2.15456 Z" />
  </g>
  <g
     style="display:none">
    <text
       style="font-style:normal;font-weight:normal;font-size:6.8009px;line-height:1.25;font-family:sans-serif;fill:#000000;fill-opacity:1;stroke:none"
       x="12.910232"
       y="18.085165"><tspan
         x="12.910232"
         y="18.085165"
         >?</tspan></text>
  </g>
  <g>
    <path
       style="fill:#000000;fill-opacity:1;stroke:none"
       d="m 14.190341,17.255589 0.676526,-0.0084 0.0084,0.818513 -0.659822,0.02506 z m -0.807622,-3.235035 -0.02362,-0.614211 0.779576,-0.307106 0.803199,-0.05906 0.767765,0.318918 0.265764,0.437035 0.06496,0.537435 -0.147647,0.425223 -0.519717,0.584682 -0.354353,0.360258 -0.135835,0.265765 -0.01181,0.77367 -0.637835,0.01772 -0.02362,-0.661458 0.09449,-0.419318 0.259859,-0.366164 0.608305,-0.6024 0.2008,-0.324823 -0.01772,-0.318917 -0.224424,-0.348447 -0.507905,-0.177177 -0.631929,0.159459 z" />
  </g>
</svg>